# xmcd
#
# Track frame offsets:
#	150
#	19107
#	37743
#	57705
#	78010
#	99736
#	120742
#	140670
#	161579
#	175428
#	182169
#	198197
#	214688
#	235808
#	251426
#	264616
#	282249
#	298346
#	314541
#	331044
#
# Disc length: 4666 seconds
#
# Revision: 0
# Processed by: cddbd v1.5.1PL0 Copyright (c) Steve Scherf et al.
# Submitted via: dBpowerAMP V4.0
#
DISCID=27123814
DTITLE=SHANIA - COLETANIA
DYEAR=1900
DGENRE=COUNTRY
TTITLE0=HOME
TTITLE1=ANY MAN
TTITLE2=WHOSE
TTITLE3=IF YOU
TTITLE4=THE WOMAN
TTITLE5=IS THERE
TTITLE6=YOU WIN
TTITLE7=RAINING
TTITLE8=NO ONE
TTITLE9=GOD
TTITLE10=YOU'RE
TTITLE11=WHEN
TTITLE12=FROM THIS
TTITLE13=I'M
TTITLE14=COME
TTITLE15=MAN
TTITLE16=LOVE
TTITLE17=DON'T
TTITLE18=THAT
TTITLE19=IF YOU
EXTD=SHANIA
EXTT0=
EXTT1=
EXTT2=
EXTT3=
EXTT4=
EXTT5=
EXTT6=
EXTT7=
EXTT8=
EXTT9=
EXTT10=
EXTT11=
EXTT12=
EXTT13=
EXTT14=
EXTT15=
EXTT16=
EXTT17=
EXTT18=
EXTT19=
PLAYORDER=
